<svg width="512" height="512" viewBox="0 0 512 512" fill="none" xmlns="http://www.w3.org/2000/svg">
  <defs>
    <radialGradient id="bg" cx="50%" cy="40%" r="80%">
      <stop offset="0%" stop-color="#0e2c20" />
      <stop offset="60%" stop-color="#071b12" />
      <stop offset="100%" stop-color="#030b07" />
    </radialGradient>
    <clipPath id="tile">
      <rect x="8" y="8" width="496" height="496" rx="112" />
    </clipPath>
    <pattern id="scan" width="1" height="5" patternUnits="userSpaceOnUse">
      <rect width="512" height="1" fill="#80EEC0" opacity="0.05" />
    </pattern>
    <filter id="glow" x="-60%" y="-60%" width="220%" height="220%">
      <feGaussianBlur stdDeviation="9" result="b" />
      <feMerge>
        <feMergeNode in="b" />
        <feMergeNode in="SourceGraphic" />
      </feMerge>
    </filter>
    <filter id="boltGlow" x="-100%" y="-100%" width="300%" height="300%">
      <feGaussianBlur stdDeviation="14" result="b" />
      <feMerge>
        <feMergeNode in="b" />
        <feMergeNode in="b" />
        <feMergeNode in="SourceGraphic" />
      </feMerge>
    </filter>
  </defs>

  <g clip-path="url(#tile)">
    <rect x="8" y="8" width="496" height="496" fill="url(#bg)" />
    <rect x="8" y="8" width="496" height="496" fill="url(#scan)" />
    <path
      d="M330 80 L232 264 L292 264 L250 440 L392 224 L322 224 Z"
      fill="#80EEC0"
      opacity="0.3"
      filter="url(#boltGlow)"
    />
  </g>

  <g transform="translate(256 256) scale(0.68) translate(-256 -256)" filter="url(#glow)">
    <path
      d="M281.44 397.667H438.32C443.326 397.667 448.118 395.908 452.453 393.427C456.789 390.946 461.258 387.831 463.76 383.533C466.262 379.236 468.002 374.36 468 369.399C467.998 364.437 466.266 359.563 463.76 355.268L357.76 172.947C355.258 168.65 352.201 165.534 347.867 163.053C343.532 160.573 337.325 158.813 332.32 158.813C327.315 158.813 322.521 160.573 318.187 163.053C313.852 165.534 310.795 168.65 308.293 172.947L281.44 219.587L227.733 129.13C225.229 124.834 222.176 120.307 217.84 117.827C213.504 115.346 208.713 115 203.707 115C198.701 115 193.909 115.346 189.573 117.827C185.238 120.307 180.771 124.834 178.267 129.13L46.8267 355.268C44.3208 359.563 44.0022 364.437 44 369.399C43.9978 374.36 44.3246 379.235 46.8267 383.533C49.3288 387.83 53.7979 390.946 58.1333 393.427C62.4688 395.908 67.2603 397.667 72.2667 397.667H171.2C210.401 397.667 238.934 380.082 258.827 346.787L306.88 263.4L332.32 219.587L410.053 352.44H306.88L281.44 397.667ZM169.787 352.44H100.533L203.707 174.36L256 263.4L221.361 323.784C208.151 345.387 193.089 352.44 169.787 352.44Z"
      fill="#00DC82"
    />
  </g>

  <rect
    x="9"
    y="9"
    width="494"
    height="494"
    rx="111"
    fill="none"
    stroke="#00DC82"
    stroke-opacity="0.35"
    stroke-width="2"
  />
</svg>
